<?xml version="1.0" encoding="UTF-8" standalone="no"?>
<svg
   width="1024"
   height="1024"
   viewBox="0 0 1024 1024"
   fill="none"
   version="1.1"
   id="svg40"
   sodipodi:docname="Frame 1.svg"
   inkscape:version="1.1.2 (0a00cf5339, 2022-02-04, custom)"
   xmlns:inkscape="http://www.inkscape.org/namespaces/inkscape"
   xmlns:sodipodi="http://sodipodi.sourceforge.net/DTD/sodipodi-0.dtd"
   xmlns:xlink="http://www.w3.org/1999/xlink"
   xmlns="http://www.w3.org/2000/svg"
   xmlns:svg="http://www.w3.org/2000/svg">
  <sodipodi:namedview
     id="namedview42"
     pagecolor="#ffffff"
     bordercolor="#666666"
     borderopacity="1.0"
     inkscape:pageshadow="2"
     inkscape:pageopacity="0.0"
     inkscape:pagecheckerboard="0"
     showgrid="false"
     inkscape:snap-to-guides="true"
     inkscape:zoom="0.38145691"
     inkscape:cx="460.07817"
     inkscape:cy="484.98269"
     inkscape:window-width="1366"
     inkscape:window-height="699"
     inkscape:window-x="0"
     inkscape:window-y="0"
     inkscape:window-maximized="1"
     inkscape:current-layer="svg40"
     inkscape:object-paths="true" />
  <path
     id="path2"
     style="fill:url(#paint0_linear_2_2);fill-opacity:1"
     d="m 297.00195,712.426 v 65.73243 c -0.058,9.96 3.31697,20.15665 10.91797,28.84765 L 479.4043,1003.0882 c 17.46,19.97 48.51365,19.97 65.97265,0 L 716.85938,807.00608 c 7.60099,-8.691 10.97792,-18.88765 10.91992,-28.84765 v -65.73047 h -0.13672 c -0.36025,9.34435 -3.66879,18.79465 -10.7832,26.92968 L 545.37695,935.44358 c -17.46,19.964 -48.51265,19.964 -65.97265,0 L 307.91992,739.35764 C 300.805,731.22204 297.49656,721.771 297.13672,712.426 Z" />
  <path
     d="M609.343 92.4642H415.437C391.235 92.4642 371.616 112.083 371.616 136.285V666.791H340.906C303.262 666.791 283.139 711.123 307.92 739.459L479.404 935.544C496.864 955.508 527.916 955.508 545.376 935.544L716.86 739.459C741.641 711.123 721.518 666.791 683.874 666.791L653.164 666.791V136.285C653.164 112.083 633.545 92.4642 609.343 92.4642Z"
     fill="#FF4444"
     id="path4" />
  <defs
     id="defs38">
    <linearGradient
       id="paint0_linear_2_2"
       x1="297.01608"
       y1="778.41333"
       x2="727.51752"
       y2="778.41333"
       gradientUnits="userSpaceOnUse"
       xlink:href="#paint1_linear_2_2"
       gradientTransform="translate(0,-0.10134)">
      <stop
         stop-color="#FF6D6D"
         id="stop12"
         style="stop-color:#ff4444;stop-opacity:1" />
      <stop
         offset="0.055"
         stop-color="#FF6D6D"
         id="stop14"
         style="stop-color:#ff5858;stop-opacity:1" />
      <stop
         offset="0.10749663"
         stop-color="#FF3C3C"
         id="stop16" />
      <stop
         offset="0.88999999"
         stop-color="#FF3C3C"
         id="stop18" />
      <stop
         offset="0.94499999"
         stop-color="#FF3C3C"
         id="stop20742"
         style="stop-color:#ff5858;stop-opacity:1" />
      <stop
         offset="1"
         stop-color="#FF6D6D"
         id="stop20"
         style="stop-color:#ff3c3c;stop-opacity:1" />
    </linearGradient>
    <linearGradient
       id="paint1_linear_2_2"
       x1="586.28"
       y1="37"
       x2="586.28"
       y2="271"
       gradientUnits="userSpaceOnUse">
      <stop
         stop-color="#BBF3FF"
         id="stop23" />
      <stop
         offset="1"
         stop-color="white"
         stop-opacity="0"
         id="stop25" />
    </linearGradient>
    <linearGradient
       id="paint2_linear_2_2"
       x1="512.78"
       y1="137"
       x2="512.78"
       y2="372"
       gradientUnits="userSpaceOnUse">
      <stop
         stop-color="#BBF3FF"
         id="stop28" />
      <stop
         offset="1"
         stop-color="white"
         stop-opacity="0"
         id="stop30" />
    </linearGradient>
    <linearGradient
       id="paint3_linear_2_2"
       x1="439.28"
       y1="5"
       x2="439.28"
       y2="239"
       gradientUnits="userSpaceOnUse">
      <stop
         stop-color="#BBF3FF"
         id="stop33" />
      <stop
         offset="1"
         stop-color="white"
         stop-opacity="0"
         id="stop35" />
    </linearGradient>
    <linearGradient
       xlink:href="#a"
       id="b"
       gradientUnits="userSpaceOnUse"
       gradientTransform="matrix(0,0.81384971,-2.165764,0,1021.343,-151.6907)"
       x1="300"
       y1="235"
       x2="428"
       y2="235" />
    <linearGradient
       id="a">
      <stop
         offset="0"
         stop-color="#f9f06b"
         id="stop3" />
      <stop
         offset="1"
         stop-color="#f5c211"
         id="stop5" />
    </linearGradient>
    <linearGradient
       xlink:href="#a"
       id="b-2"
       gradientUnits="userSpaceOnUse"
       gradientTransform="matrix(0,0.8138496,-2.1657638,0,1325.3431,-151.69067)"
       x1="300"
       y1="235"
       x2="428"
       y2="235" />
  </defs>
  <g
     id="g14"
     opacity="0.8"
     transform="matrix(2.1995938,0,0,2.1995938,371.616,-84.911036)">
    <path
       d="M 13.307,80.64 60.666,128 H 81.879 L 34.52,80.64 Z m 42.425,0 47.362,47.36 h 21.213 L 76.947,80.64 Z m 42.428,0 29.84,29.84 V 89.268 l -8.627,-8.627 z M 0,88.546 v 21.215 L 18.24,128 h 21.215 z"
       id="path12" />
  </g>
  <g
     id="g2576"
     transform="matrix(2.1995935,0,0,2.1995935,-1136.5396,-329.65883)">
    <g
       id="g2570">
      <path
         id="path10-2"
         style="fill:url(#b-2);stroke-width:2.19959"
         d="m 719.4375,92.464844 c -24.202,0 -43.82227,19.618316 -43.82227,43.820316 v 60.35156 h 281.54883 v -60.35156 c 0,-24.202 -19.61831,-43.820316 -43.82031,-43.820316 z"
         transform="matrix(0.45462946,0,0,0.45462946,378.49703,149.87262)" />
      <path
         d="m 698.95899,191.90957 47.359,47.36 h 21.213 l -47.359,-47.36 z m 42.425,0 47.362,47.36 h 21.213 l -47.36,-47.36 z m 42.428,0 29.84,29.84 v -21.212 l -8.627,-8.627 z m -98.16,7.906 v 21.215 l 18.24,18.239 h 21.215 z"
         id="path12-7" />
    </g>
  </g>
  <path
     d="M -15.809449,129.22583 88.3611,233.39858 h 46.65998 L 30.850528,129.22583 Z m 93.317754,0 104.177145,104.17275 h 46.65998 L 124.17268,129.22583 Z m 93.324355,0 65.63587,65.63587 v -46.65777 l -18.97589,-18.9759 z m -215.9121,17.38999 v 46.66438 l 40.1205859,40.11838 H 41.705522 Z"
     id="path3126"
     style="stroke-width:2.19959" />
  <path
     id="path3134"
     d="m 415.43759,92.465085 c -4.38058,0 -8.52645,0.836887 -12.51758,2.033203 L 505.05673,196.63696 h 46.66016 L 447.54697,92.465085 Z m 78.76562,0 104.17774,104.171875 h 46.66016 L 540.86728,92.465085 Z m 93.32422,0 65.63672,65.634765 V 136.2854 c 0,-24.19869 -19.61311,-43.814946 -43.81054,-43.820315 h -0.01 z M 377.14658,115.38501 c -3.41435,6.23787 -5.53125,13.28762 -5.53125,20.90039 v 20.23437 l 40.12109,40.11719 h 46.66406 z"
     style="fill:#000000" />
  <path
     d="M565.78 78C565.78 55.3563 584.136 37 606.78 37V230C606.78 252.644 588.424 271 565.78 271V78Z"
     fill="url(#paint1_linear_2_2)"
     id="path6" />
  <path
     d="M491.78 179C491.78 155.804 510.584 137 533.78 137V330C533.78 353.196 514.976 372 491.78 372V179Z"
     fill="url(#paint2_linear_2_2)"
     id="path8" />
  <path
     d="M418.78 46C418.78 23.3563 437.136 5 459.78 5V198C459.78 220.644 441.424 239 418.78 239V46Z"
     fill="url(#paint3_linear_2_2)"
     id="path10" />
</svg>
